<?xml version="1.0" encoding="UTF-8" standalone="no"?>
<!-- Created with Inkscape (http://www.inkscape.org/) -->

<svg
   width="210mm"
   height="297mm"
   viewBox="0 0 210 297"
   version="1.1"
   id="svg274"
   xmlns="http://www.w3.org/2000/svg"
   xmlns:svg="http://www.w3.org/2000/svg">
  <defs
     id="defs271" />
  <g
     id="layer1">
    <path
       style="fill:#d30b37;stroke-width:0.264583;fill-opacity:1"
       d="m 114.2507,119.09508 c -1.32292,-0.43115 -1.32292,-0.43115 0.83174,-0.60492 5.56735,-0.44899 9.59391,-4.31813 10.54504,-10.13276 0.20802,-1.27172 0.32321,-1.16284 0.6625,0.62623 1.26348,6.66231 -5.41411,12.27063 -12.03928,10.11145 z m 3.30729,-2.01427 c 0,-0.0379 0.54992,-0.64282 1.22205,-1.34429 2.89337,-3.01969 3.81535,-7.78396 2.31223,-11.94823 -0.3432,-0.95079 1.1108,0.63232 1.8818,2.04891 2.15711,3.96331 0.0605,9.45024 -4.15931,10.88516 -0.69122,0.23504 -1.25677,0.39635 -1.25677,0.35845 z m 0.98205,-3.39997 c 1.38022,-2.74669 0.8056,-6.0988 -1.39284,-8.12525 -1.41594,-1.30517 -1.43199,-1.36716 -0.26091,-1.00774 3.7492,1.15066 5.14522,6.52547 2.44501,9.41352 -1.23362,1.31943 -1.54056,1.21061 -0.79126,-0.28053 z m -0.31668,-2.56661 c -0.48747,-2.21946 -3.39586,-4.11233 -6.06364,-3.94642 -1.76499,0.10977 -1.76181,0.11392 -0.4331,-0.56393 2.97565,-1.51807 6.55829,0.4997 6.83614,3.85016 0.1284,1.54834 -0.0627,1.92004 -0.3394,0.66019 z"
       id="path251" />
  </g>
</svg>
