<?xml version="1.0" encoding="UTF-8" standalone="no"?>
<svg
   width="142.13455"
   height="142.12804"
   viewBox="0 0 142.13455 142.12804"
   version="1.1"
   id="svg632"
   sodipodi:docname="node-02.svg"
   inkscape:version="1.2.1 (9c6d41e410, 2022-07-14)"
   xmlns:inkscape="http://www.inkscape.org/namespaces/inkscape"
   xmlns:sodipodi="http://sodipodi.sourceforge.net/DTD/sodipodi-0.dtd"
   xmlns:xlink="http://www.w3.org/1999/xlink"
   xmlns="http://www.w3.org/2000/svg"
   xmlns:svg="http://www.w3.org/2000/svg"
   xmlns:rdf="http://www.w3.org/1999/02/22-rdf-syntax-ns#"
   xmlns:cc="http://creativecommons.org/ns#"
   xmlns:dc="http://purl.org/dc/elements/1.1/">
  <sodipodi:namedview
     id="namedview634"
     pagecolor="#ffffff"
     bordercolor="#666666"
     borderopacity="1.0"
     inkscape:showpageshadow="2"
     inkscape:pageopacity="0.0"
     inkscape:pagecheckerboard="0"
     inkscape:deskcolor="#d1d1d1"
     showgrid="false"
     inkscape:zoom="2.4645703"
     inkscape:cx="13.795509"
     inkscape:cy="11.158132"
     inkscape:window-width="1920"
     inkscape:window-height="1131"
     inkscape:window-x="0"
     inkscape:window-y="0"
     inkscape:window-maximized="1"
     inkscape:current-layer="svg632" />
  <!-- Generator: Sketch 42 (36781) - http://www.bohemiancoding.com/sketch -->
  <title
     id="title509">juju-cluster-20</title>
  <desc
     id="desc511">Created with Sketch.</desc>
  <defs
     id="defs516">
    <path
       d="m 39.451344,78.07858 c -21.525874,0 -38.97637786,-17.4496 -38.97637786,-38.974358 0,-21.524759 17.45050386,-38.97435944 38.97637786,-38.97435944 21.525874,0 38.976378,17.44960044 38.976378,38.97435944 0,21.524758 -17.450504,38.974358 -38.976378,38.974358 z"
       id="path-1" />
    <path
       d="m 39.451344,78.07858 c -21.525874,0 -38.97637786,-17.4496 -38.97637786,-38.974358 0,-21.524759 17.45050386,-38.97435944 38.97637786,-38.97435944 21.525874,0 38.976378,17.44960044 38.976378,38.97435944 0,21.524758 -17.450504,38.974358 -38.976378,38.974358 z"
       id="path-3" />
    <path
       d="m 39.451344,78.07858 c -21.525874,0 -38.97637786,-17.4496 -38.97637786,-38.974358 0,-21.524759 17.45050386,-38.97435944 38.97637786,-38.97435944 21.525874,0 38.976378,17.44960044 38.976378,38.97435944 0,21.524758 -17.450504,38.974358 -38.976378,38.974358 z"
       id="path-5" />
  </defs>
  <path
     d="m 141.35455,71.06402 c 0,38.8169 -31.46875,70.28402 -70.28766,70.28402 -38.81814,0 -70.28689003,-31.46712 -70.28689003,-70.28402 0,-38.8169 31.46875003,-70.28402003 70.28689003,-70.28402003 38.81891,0 70.28766,31.46712003 70.28766,70.28402003 z"
     id="Stroke-14"
     stroke="#868686"
     stroke-width="1.56"
     fill="#ffffff"
     style="fill-rule:evenodd" />
  <g
     id="Group-3-Copy"
     transform="translate(31.61585,31.83064)"
     style="fill:none;fill-rule:evenodd;stroke:none;stroke-width:1">
    <mask
       id="mask-4"
       fill="#ffffff">
      <use
         xlink:href="#path-3"
         id="use553" />
    </mask>
    <use
       id="use556"
       fill="#ffffff"
       xlink:href="#path-3" />
    <g
       id="Group-6"
       mask="url(#mask-4)">
      <g
         transform="translate(-3.897638,-2.338462)"
         id="g583">
        <g
           id="g560">
          <rect
             id="rect558"
             fill="#e7e9ed"
             x="0"
             y="0"
             width="83"
             height="83" />
        </g>
        <g
           id="Group-4"
           stroke-width="1"
           transform="translate(17.258148,24.055566)">
          <path
             d="m 48.157462,4.5365695 c 4.074179,0 7.377848,4.2883872 7.377848,9.5784645 0,5.290078 -3.303669,9.578465 -7.377848,9.578465"
             id="Stroke-3"
             stroke="#18a1ff"
             stroke-width="1.04658" />
          <path
             d="m 48.157462,11.870432 c 4.074179,0 7.377848,4.288387 7.377848,9.578464 0,5.290078 -3.303669,9.578465 -7.377848,9.578465"
             id="Stroke-5"
             stroke="#18a1ff"
             stroke-width="1.04658" />
          <path
             d="M 48.555839,15.206253 H 0.92107097 c -0.4800682,0 -0.86892345,-0.354432 -0.86892345,-0.792072 V 1.2953969 c 0,-0.43763946 0.38885525,-0.79207146 0.86892345,-0.79207146 H 48.555839 c 0.479268,0 0.868123,0.354432 0.868123,0.79207146 V 14.414181 c 0,0.43764 -0.388855,0.792072 -0.868123,0.792072"
             id="Fill-7"
             fill="#263156" />
          <path
             d="M 21.657057,6.4721843 V 5.128063 c 0,-0.3040275 -0.222432,-0.5504498 -0.496871,-0.5504498 h -9.607765 c -0.274439,0 -0.49687,0.2464223 -0.49687,0.5504498 v 1.3441213 c 0,0.3040274 0.222431,0.5504497 0.49687,0.5504497 h 9.607765 c 0.274439,0 0.496871,-0.2464223 0.496871,-0.5504497"
             id="Fill-9"
             fill="#d8d8d8" />
          <path
             d="M 21.657057,10.581515 V 9.2373939 c 0,-0.3040274 -0.222432,-0.5504497 -0.496871,-0.5504497 h -9.607765 c -0.274439,0 -0.49687,0.2464223 -0.49687,0.5504497 v 1.3441211 c 0,0.304028 0.222431,0.55045 0.49687,0.55045 h 9.607765 c 0.274439,0 0.496871,-0.246422 0.496871,-0.55045"
             id="Fill-11"
             fill="#d8d8d8" />
          <path
             d="M 33.992409,6.4721843 V 5.128063 c 0,-0.3040275 -0.222431,-0.5504498 -0.49687,-0.5504498 h -9.607765 c -0.274439,0 -0.496871,0.2464223 -0.496871,0.5504498 v 1.3441213 c 0,0.3040274 0.222432,0.5504497 0.496871,0.5504497 h 9.607765 c 0.274439,0 0.49687,-0.2464223 0.49687,-0.5504497"
             id="Fill-13"
             fill="#d8d8d8" />
          <path
             d="M 33.992409,10.581515 V 9.2373939 c 0,-0.3040274 -0.222431,-0.5504497 -0.49687,-0.5504497 h -9.607765 c -0.274439,0 -0.496871,0.2464223 -0.496871,0.5504497 v 1.3441211 c 0,0.304028 0.222432,0.55045 0.496871,0.55045 h 9.607765 c 0.274439,0 0.49687,-0.246422 0.49687,-0.55045"
             id="Fill-15"
             fill="#d8d8d8" />
          <path
             d="M 46.327682,6.4721843 V 5.128063 c 0,-0.3040275 -0.222432,-0.5504498 -0.496871,-0.5504498 h -9.607765 c -0.274439,0 -0.49687,0.2464223 -0.49687,0.5504498 v 1.3441213 c 0,0.3040274 0.222431,0.5504497 0.49687,0.5504497 h 9.607765 c 0.274439,0 0.496871,-0.2464223 0.496871,-0.5504497"
             id="Fill-17"
             fill="#d8d8d8" />
          <path
             d="M 46.327682,10.581515 V 9.2373939 c 0,-0.3040274 -0.222432,-0.5504497 -0.496871,-0.5504497 h -9.607765 c -0.274439,0 -0.49687,0.2464223 -0.49687,0.5504497 v 1.3441211 c 0,0.304028 0.222431,0.55045 0.49687,0.55045 h 9.607765 c 0.274439,0 0.496871,-0.246422 0.496871,-0.55045"
             id="Fill-19"
             fill="#d8d8d8" />
          <path
             d="m 2.4291252,5.903573 c 0,-0.7064638 0.5728814,-1.2793155 1.2793818,-1.2793155 0.7073005,0 1.2801819,0.5728517 1.2801819,1.2793155 0,0.7064637 -0.5728814,1.2793154 -1.2801819,1.2793154 -0.7065004,0 -1.2793818,-0.5728517 -1.2793818,-1.2793154"
             id="Fill-21"
             fill="#d8d8d8" />
          <path
             d="m 5.6879082,5.903573 c 0,-0.7064638 0.5728814,-1.2793155 1.2793818,-1.2793155 0.7073005,0 1.2801819,0.5728517 1.2801819,1.2793155 0,0.7064637 -0.5728814,1.2793154 -1.2801819,1.2793154 -0.7065004,0 -1.2793818,-0.5728517 -1.2793818,-1.2793154"
             id="Fill-23"
             fill="#d8d8d8" />
          <path
             d="M 48.555839,34.522237 H 0.92107097 c -0.4800682,0 -0.86892345,-0.354432 -0.86892345,-0.792072 V 20.611381 c 0,-0.43764 0.38885525,-0.792072 0.86892345,-0.792072 H 48.555839 c 0.479268,0 0.868123,0.354432 0.868123,0.792072 v 13.118784 c 0,0.43764 -0.388855,0.792072 -0.868123,0.792072"
             id="Fill-25"
             fill="#263156" />
          <path
             d="m 21.657057,25.788168 v -1.344121 c 0,-0.304028 -0.222432,-0.55045 -0.496871,-0.55045 h -9.607765 c -0.274439,0 -0.49687,0.246422 -0.49687,0.55045 v 1.344121 c 0,0.304027 0.222431,0.55045 0.49687,0.55045 h 9.607765 c 0.274439,0 0.496871,-0.246423 0.496871,-0.55045"
             id="Fill-27"
             fill="#d8d8d8" />
          <path
             d="m 21.657057,29.897419 v -1.344121 c 0,-0.304028 -0.222432,-0.55045 -0.496871,-0.55045 h -9.607765 c -0.274439,0 -0.49687,0.246422 -0.49687,0.55045 v 1.344121 c 0,0.304027 0.222431,0.55045 0.49687,0.55045 h 9.607765 c 0.274439,0 0.496871,-0.246423 0.496871,-0.55045"
             id="Fill-29"
             fill="#d8d8d8" />
          <path
             d="m 33.992409,25.788168 v -1.344121 c 0,-0.304028 -0.222431,-0.55045 -0.49687,-0.55045 h -9.607765 c -0.274439,0 -0.496871,0.246422 -0.496871,0.55045 v 1.344121 c 0,0.304027 0.222432,0.55045 0.496871,0.55045 h 9.607765 c 0.274439,0 0.49687,-0.246423 0.49687,-0.55045"
             id="Fill-31"
             fill="#d8d8d8" />
          <path
             d="m 33.992409,29.897419 v -1.344121 c 0,-0.304028 -0.222431,-0.55045 -0.49687,-0.55045 h -9.607765 c -0.274439,0 -0.496871,0.246422 -0.496871,0.55045 v 1.344121 c 0,0.304027 0.222432,0.55045 0.496871,0.55045 h 9.607765 c 0.274439,0 0.49687,-0.246423 0.49687,-0.55045"
             id="Fill-33"
             fill="#d8d8d8" />
          <path
             d="m 46.327682,25.788168 v -1.344121 c 0,-0.304028 -0.222432,-0.55045 -0.496871,-0.55045 h -9.607765 c -0.274439,0 -0.49687,0.246422 -0.49687,0.55045 v 1.344121 c 0,0.304027 0.222431,0.55045 0.49687,0.55045 h 9.607765 c 0.274439,0 0.496871,-0.246423 0.496871,-0.55045"
             id="Fill-35"
             fill="#d8d8d8" />
          <path
             d="m 46.327682,29.897419 v -1.344121 c 0,-0.304028 -0.222432,-0.55045 -0.496871,-0.55045 h -9.607765 c -0.274439,0 -0.49687,0.246422 -0.49687,0.55045 v 1.344121 c 0,0.304027 0.222431,0.55045 0.49687,0.55045 h 9.607765 c 0.274439,0 0.496871,-0.246423 0.496871,-0.55045"
             id="Fill-37"
             fill="#d8d8d8" />
          <path
             d="m 2.4291252,25.219477 c 0,-0.706464 0.5728814,-1.279316 1.2793818,-1.279316 0.7073005,0 1.2801819,0.572852 1.2801819,1.279316 0,0.706463 -0.5728814,1.279315 -1.2801819,1.279315 -0.7065004,0 -1.2793818,-0.572852 -1.2793818,-1.279315"
             id="Fill-39"
             fill="#d8d8d8" />
          <path
             d="m 5.6879082,25.219477 c 0,-0.706464 0.5728814,-1.279316 1.2793818,-1.279316 0.7073005,0 1.2801819,0.572852 1.2801819,1.279316 0,0.706463 -0.5728814,1.279315 -1.2801819,1.279315 -0.7065004,0 -1.2793818,-0.572852 -1.2793818,-1.279315"
             id="Fill-41"
             fill="#d8d8d8" />
        </g>
      </g>
    </g>
  </g>
  <metadata
     id="metadata1034">
    <rdf:RDF>
      <cc:Work
         rdf:about="">
        <dc:title>juju-cluster-20</dc:title>
      </cc:Work>
    </rdf:RDF>
  </metadata>
</svg>
